<?xml version="1.0" encoding="UTF-8" standalone="no"?>
<!-- Created with Inkscape (http://www.inkscape.org/) -->

<svg
   xmlns:dc="http://purl.org/dc/elements/1.1/"
   xmlns:cc="http://creativecommons.org/ns#"
   xmlns:rdf="http://www.w3.org/1999/02/22-rdf-syntax-ns#"
   xmlns:svg="http://www.w3.org/2000/svg"
   xmlns="http://www.w3.org/2000/svg"
   xmlns:xlink="http://www.w3.org/1999/xlink"
   xmlns:sodipodi="http://sodipodi.sourceforge.net/DTD/sodipodi-0.dtd"
   xmlns:inkscape="http://www.inkscape.org/namespaces/inkscape"
   width="1920"
   height="384"
   id="svg2"
   version="1.1"
   inkscape:version="0.48.4 r9939"
   inkscape:export-filename="/home/bibi09/explode.png"
   inkscape:export-xdpi="90"
   inkscape:export-ydpi="90"
   sodipodi:docname="Nouveau document 1">
  <defs
     id="defs4">
    <linearGradient
       inkscape:collect="always"
       id="linearGradient4276">
      <stop
         style="stop-color:#808080;stop-opacity:1;"
         offset="0"
         id="stop4278" />
      <stop
         style="stop-color:#808080;stop-opacity:0;"
         offset="1"
         id="stop4280" />
    </linearGradient>
    <linearGradient
       inkscape:collect="always"
       id="linearGradient4268">
      <stop
         style="stop-color:#808080;stop-opacity:1;"
         offset="0"
         id="stop4270" />
      <stop
         style="stop-color:#808080;stop-opacity:0;"
         offset="1"
         id="stop4272" />
    </linearGradient>
    <linearGradient
       inkscape:collect="always"
       id="linearGradient4260">
      <stop
         style="stop-color:#808080;stop-opacity:1;"
         offset="0"
         id="stop4262" />
      <stop
         style="stop-color:#808080;stop-opacity:0;"
         offset="1"
         id="stop4264" />
    </linearGradient>
    <linearGradient
       inkscape:collect="always"
       id="linearGradient4252">
      <stop
         style="stop-color:#808080;stop-opacity:1;"
         offset="0"
         id="stop4254" />
      <stop
         style="stop-color:#808080;stop-opacity:0;"
         offset="1"
         id="stop4256" />
    </linearGradient>
    <linearGradient
       inkscape:collect="always"
       id="linearGradient4244">
      <stop
         style="stop-color:#000000;stop-opacity:1;"
         offset="0"
         id="stop4246" />
      <stop
         style="stop-color:#000000;stop-opacity:0;"
         offset="1"
         id="stop4248" />
    </linearGradient>
    <linearGradient
       inkscape:collect="always"
       id="linearGradient4236">
      <stop
         style="stop-color:#000000;stop-opacity:1;"
         offset="0"
         id="stop4238" />
      <stop
         style="stop-color:#000000;stop-opacity:0;"
         offset="1"
         id="stop4240" />
    </linearGradient>
    <linearGradient
       inkscape:collect="always"
       id="linearGradient4228">
      <stop
         style="stop-color:#808080;stop-opacity:1;"
         offset="0"
         id="stop4230" />
      <stop
         style="stop-color:#808080;stop-opacity:0;"
         offset="1"
         id="stop4232" />
    </linearGradient>
    <linearGradient
       inkscape:collect="always"
       id="linearGradient4220">
      <stop
         style="stop-color:#808080;stop-opacity:1;"
         offset="0"
         id="stop4222" />
      <stop
         style="stop-color:#808080;stop-opacity:0;"
         offset="1"
         id="stop4224" />
    </linearGradient>
    <linearGradient
       inkscape:collect="always"
       id="linearGradient4212">
      <stop
         style="stop-color:#808080;stop-opacity:1;"
         offset="0"
         id="stop4214" />
      <stop
         style="stop-color:#808080;stop-opacity:0;"
         offset="1"
         id="stop4216" />
    </linearGradient>
    <linearGradient
       inkscape:collect="always"
       id="linearGradient4204">
      <stop
         style="stop-color:#808080;stop-opacity:1;"
         offset="0"
         id="stop4206" />
      <stop
         style="stop-color:#808080;stop-opacity:0;"
         offset="1"
         id="stop4208" />
    </linearGradient>
    <linearGradient
       inkscape:collect="always"
       id="linearGradient4180">
      <stop
         style="stop-color:#f2f2f2;stop-opacity:1;"
         offset="0"
         id="stop4182" />
      <stop
         style="stop-color:#f2f2f2;stop-opacity:0;"
         offset="1"
         id="stop4184" />
    </linearGradient>
    <linearGradient
       inkscape:collect="always"
       id="linearGradient4172">
      <stop
         style="stop-color:#f2f2f2;stop-opacity:1;"
         offset="0"
         id="stop4174" />
      <stop
         style="stop-color:#f2f2f2;stop-opacity:0;"
         offset="1"
         id="stop4176" />
    </linearGradient>
    <linearGradient
       inkscape:collect="always"
       id="linearGradient4164">
      <stop
         style="stop-color:#f2f2f2;stop-opacity:1;"
         offset="0"
         id="stop4166" />
      <stop
         style="stop-color:#f2f2f2;stop-opacity:0;"
         offset="1"
         id="stop4168" />
    </linearGradient>
    <linearGradient
       inkscape:collect="always"
       id="linearGradient4156">
      <stop
         style="stop-color:#f2f2f2;stop-opacity:1;"
         offset="0"
         id="stop4158" />
      <stop
         style="stop-color:#f2f2f2;stop-opacity:0;"
         offset="1"
         id="stop4160" />
    </linearGradient>
    <linearGradient
       inkscape:collect="always"
       id="linearGradient4148">
      <stop
         style="stop-color:#f2f2f2;stop-opacity:1;"
         offset="0"
         id="stop4150" />
      <stop
         style="stop-color:#f2f2f2;stop-opacity:0;"
         offset="1"
         id="stop4152" />
    </linearGradient>
    <inkscape:path-effect
       effect="spiro"
       id="path-effect3988"
       is_visible="true" />
    <inkscape:path-effect
       effect="spiro"
       id="path-effect3925"
       is_visible="true" />
    <inkscape:path-effect
       effect="spiro"
       id="path-effect3844"
       is_visible="true" />
    <inkscape:path-effect
       effect="spiro"
       id="path-effect2987"
       is_visible="true" />
    <inkscape:path-effect
       effect="spiro"
       id="path-effect2987-5"
       is_visible="true" />
    <inkscape:path-effect
       effect="spiro"
       id="path-effect2987-54"
       is_visible="true" />
    <inkscape:path-effect
       effect="spiro"
       id="path-effect2987-54-5"
       is_visible="true" />
    <inkscape:path-effect
       effect="spiro"
       id="path-effect2987-1"
       is_visible="true" />
    <inkscape:path-effect
       effect="spiro"
       id="path-effect2987-54-5-9"
       is_visible="true" />
    <inkscape:path-effect
       effect="spiro"
       id="path-effect2987-54-2"
       is_visible="true" />
    <inkscape:path-effect
       effect="spiro"
       id="path-effect2987-6"
       is_visible="true" />
    <linearGradient
       inkscape:collect="always"
       xlink:href="#linearGradient4276"
       id="linearGradient4304"
       gradientUnits="userSpaceOnUse"
       x1="734.98022"
       y1="872.3045"
       x2="1143.4352"
       y2="872.3045" />
    <linearGradient
       inkscape:collect="always"
       xlink:href="#linearGradient4268"
       id="linearGradient4306"
       gradientUnits="userSpaceOnUse"
       x1="734.98022"
       y1="872.3045"
       x2="1143.4352"
       y2="872.3045" />
    <linearGradient
       inkscape:collect="always"
       xlink:href="#linearGradient4180"
       id="linearGradient4308"
       gradientUnits="userSpaceOnUse"
       x1="1082.4423"
       y1="13.04378"
       x2="696.00867"
       y2="367.60733" />
    <linearGradient
       inkscape:collect="always"
       xlink:href="#linearGradient4252"
       id="linearGradient4310"
       gradientUnits="userSpaceOnUse"
       x1="347.02747"
       y1="872.30597"
       x2="657.10797"
       y2="872.30597" />
    <linearGradient
       inkscape:collect="always"
       xlink:href="#linearGradient4260"
       id="linearGradient4312"
       gradientUnits="userSpaceOnUse"
       x1="347.02747"
       y1="872.30597"
       x2="657.10797"
       y2="872.30597" />
    <linearGradient
       inkscape:collect="always"
       xlink:href="#linearGradient4172"
       id="linearGradient4314"
       gradientUnits="userSpaceOnUse"
       x1="617.7179"
       y1="60.5224"
       x2="326.85916"
       y2="347.40573" />
    <linearGradient
       inkscape:collect="always"
       xlink:href="#linearGradient4220"
       id="linearGradient4328"
       gradientUnits="userSpaceOnUse"
       x1="49.049412"
       y1="865.25409"
       x2="280.43915"
       y2="865.25409" />
    <linearGradient
       inkscape:collect="always"
       xlink:href="#linearGradient4228"
       id="linearGradient4330"
       gradientUnits="userSpaceOnUse"
       x1="49.049412"
       y1="865.25409"
       x2="280.43915"
       y2="865.25409" />
    <linearGradient
       inkscape:collect="always"
       xlink:href="#linearGradient4164"
       id="linearGradient4332"
       gradientUnits="userSpaceOnUse"
       x1="251.04947"
       y1="115.08984"
       x2="16.860401"
       y2="333.28278" />
    <linearGradient
       inkscape:collect="always"
       xlink:href="#linearGradient4244"
       id="linearGradient4360"
       gradientUnits="userSpaceOnUse"
       x1="-327.54102"
       y1="864.74109"
       x2="-250.89946"
       y2="864.74109" />
    <linearGradient
       inkscape:collect="always"
       xlink:href="#linearGradient4236"
       id="linearGradient4362"
       gradientUnits="userSpaceOnUse"
       x1="-327.54102"
       y1="864.74109"
       x2="-250.89946"
       y2="864.74109" />
    <linearGradient
       inkscape:collect="always"
       xlink:href="#linearGradient4148"
       id="linearGradient4364"
       gradientUnits="userSpaceOnUse"
       x1="-268.47754"
       y1="829.40607"
       x2="-371.03656"
       y2="958.2005" />
    <linearGradient
       inkscape:collect="always"
       xlink:href="#linearGradient4212"
       id="linearGradient4426"
       gradientUnits="userSpaceOnUse"
       x1="-167.96135"
       y1="866.24255"
       x2="-21.241119"
       y2="866.24255" />
    <linearGradient
       inkscape:collect="always"
       xlink:href="#linearGradient4204"
       id="linearGradient4428"
       gradientUnits="userSpaceOnUse"
       x1="-167.96135"
       y1="866.24255"
       x2="-21.241119"
       y2="866.24255" />
    <linearGradient
       inkscape:collect="always"
       xlink:href="#linearGradient4156"
       id="linearGradient4430"
       gradientUnits="userSpaceOnUse"
       x1="-44.248119"
       y1="808.17908"
       x2="-188.85538"
       y2="953.13599" />
    <linearGradient
       inkscape:collect="always"
       xlink:href="#linearGradient4252"
       id="linearGradient4444"
       gradientUnits="userSpaceOnUse"
       x1="347.02747"
       y1="872.30597"
       x2="657.10797"
       y2="872.30597" />
    <linearGradient
       inkscape:collect="always"
       xlink:href="#linearGradient4260"
       id="linearGradient4446"
       gradientUnits="userSpaceOnUse"
       x1="347.02747"
       y1="872.30597"
       x2="657.10797"
       y2="872.30597" />
    <linearGradient
       inkscape:collect="always"
       xlink:href="#linearGradient4172"
       id="linearGradient4448"
       gradientUnits="userSpaceOnUse"
       x1="617.7179"
       y1="60.5224"
       x2="326.85916"
       y2="347.40573" />
    <linearGradient
       inkscape:collect="always"
       xlink:href="#linearGradient4220"
       id="linearGradient4456"
       gradientUnits="userSpaceOnUse"
       x1="49.049412"
       y1="865.25409"
       x2="280.43915"
       y2="865.25409" />
    <linearGradient
       inkscape:collect="always"
       xlink:href="#linearGradient4228"
       id="linearGradient4458"
       gradientUnits="userSpaceOnUse"
       x1="49.049412"
       y1="865.25409"
       x2="280.43915"
       y2="865.25409" />
    <linearGradient
       inkscape:collect="always"
       xlink:href="#linearGradient4164"
       id="linearGradient4460"
       gradientUnits="userSpaceOnUse"
       x1="251.04947"
       y1="115.08984"
       x2="16.860401"
       y2="333.28278" />
    <linearGradient
       inkscape:collect="always"
       xlink:href="#linearGradient4276"
       id="linearGradient4468"
       gradientUnits="userSpaceOnUse"
       x1="734.98022"
       y1="872.3045"
       x2="1143.4352"
       y2="872.3045" />
    <linearGradient
       inkscape:collect="always"
       xlink:href="#linearGradient4268"
       id="linearGradient4470"
       gradientUnits="userSpaceOnUse"
       x1="734.98022"
       y1="872.3045"
       x2="1143.4352"
       y2="872.3045" />
    <linearGradient
       inkscape:collect="always"
       xlink:href="#linearGradient4180"
       id="linearGradient4472"
       gradientUnits="userSpaceOnUse"
       x1="1082.4423"
       y1="13.04378"
       x2="696.00867"
       y2="367.60733" />
  </defs>
  <sodipodi:namedview
     id="base"
     pagecolor="#ffffff"
     bordercolor="#666666"
     borderopacity="1.0"
     inkscape:pageopacity="0.0"
     inkscape:pageshadow="2"
     inkscape:zoom="0.49497475"
     inkscape:cx="1112.2845"
     inkscape:cy="123.70266"
     inkscape:document-units="px"
     inkscape:current-layer="layer1"
     showgrid="false"
     fit-margin-top="0"
     fit-margin-left="0"
     fit-margin-right="0"
     fit-margin-bottom="0"
     inkscape:window-width="1366"
     inkscape:window-height="682"
     inkscape:window-x="0"
     inkscape:window-y="30"
     inkscape:window-maximized="1" />
  <metadata
     id="metadata7">
    <rdf:RDF>
      <cc:Work
         rdf:about="">
        <dc:format>image/svg+xml</dc:format>
        <dc:type
           rdf:resource="http://purl.org/dc/dcmitype/StillImage" />
        <dc:title></dc:title>
      </cc:Work>
    </rdf:RDF>
  </metadata>
  <g
     inkscape:label="Calque 1"
     inkscape:groupmode="layer"
     id="layer1"
     transform="translate(1536,-668.36218)">
    <g
       id="g4450"
       transform="translate(454.85718,0)">
      <g
         transform="translate(-1195.6014,-4.8918903)"
         style="opacity:0.7"
         id="g4292">
        <path
           style="fill:url(#linearGradient4456);fill-opacity:1;stroke:url(#linearGradient4458);stroke-width:10;stroke-miterlimit:4;stroke-dasharray:none"
           d="m 112.71428,807.57647 c 2.49889,-7.93445 7.92481,-14.91062 15.00001,-19.28572 7.37542,-4.56074 16.54794,-6.23995 24.99323,-4.27163 8.44529,1.96832 16.02101,7.64169 20.00676,15.34306 2.04889,3.95893 3.15911,8.39978 3.2143,12.85714 3.15626,-4.15103 7.40252,-7.46565 12.19558,-9.51981 4.79307,-2.05417 10.12176,-2.84311 15.30441,-2.2659 6.77693,0.75478 13.26722,3.87521 18.08886,8.69685 4.82164,4.82164 7.94207,11.31193 8.69685,18.08886 7.61107,-2.44707 16.07208,-2.15322 23.49504,0.81596 7.42297,2.96919 13.75256,8.59158 17.57639,15.61261 5.22672,9.59691 5.54236,21.70983 0.82254,31.56592 -4.71982,9.8561 -14.35471,17.20398 -25.10825,19.14837 3.33266,4.60968 5.00388,10.39469 4.64285,16.07143 -0.47064,7.40027 -4.46837,14.49846 -10.55277,18.73703 -6.08441,4.23858 -14.12812,5.52881 -21.23294,3.40583 -8.38506,6.45241 -18.22473,11.00325 -28.57143,13.21428 -21.41947,4.57721 -44.83831,-1.41365 -61.42857,-15.71428 -2.91603,2.80675 -6.57079,4.83913 -10.49362,5.8354 -3.92282,0.99627 -8.10445,0.95409 -12.00638,-0.12112 -5.63928,-1.55395 -10.643069,-5.3022 -13.719707,-10.27719 -3.076638,-4.97499 -4.194857,-11.12616 -3.066004,-16.86567 -5.132913,-0.0748 -10.226495,-1.85753 -14.285715,-5 -6.089976,-4.71459 -9.655665,-12.51489 -9.236199,-20.20509 0.419466,-7.6902 4.812418,-15.05639 11.379057,-19.08062 -3.748241,0.39604 -7.595873,-0.18932 -11.056755,-1.68212 -3.460881,-1.49281 -6.527151,-3.88966 -8.811392,-6.88773 -2.284241,-2.99806 -3.781265,-6.59053 -4.301926,-10.3235 -0.52066,-3.73297 -0.06377,-7.59797 1.31293,-11.10665 2.429583,-6.19206 7.808924,-11.15007 14.17816,-13.06769 6.369235,-1.91762 13.591739,-0.75371 19.036125,3.06769 -0.05889,-1.436 0.06138,-2.87926 0.357143,-4.28571 1.043529,-4.96226 4.379011,-9.39352 8.858864,-11.7692 4.479849,-2.37568 10.019329,-2.65083 14.712559,-0.7308"
           id="path2985-3"
           inkscape:path-effect="#path-effect2987-6"
           inkscape:original-d="m 112.71428,807.57647 c 0,0 -12.857137,1.42857 15.00001,-19.28572 27.85714,-20.71428 50.71428,4.64286 44.99999,11.07143 -5.71428,6.42857 3.2143,12.85714 3.2143,12.85714 0,0 -0.35715,-11.78571 27.49999,-11.78571 27.85714,0 26.78571,26.78571 26.78571,26.78571 0,0 21.07143,8.57143 41.07143,16.42857 20,7.85715 -24.28571,50.71429 -24.28571,50.71429 0,0 1.78571,-8.21428 4.64285,16.07143 2.85715,24.28572 -31.78571,22.14286 -31.78571,22.14286 0,0 -7.85714,1.07142 -28.57143,13.21428 -20.71428,12.14286 -61.42857,-15.71428 -61.42857,-15.71428 0,0 8.92857,21.42857 -22.5,5.71428 -31.428569,-15.71429 -16.785711,-27.14286 -16.785711,-27.14286 0,0 17.142861,23.57143 -14.285715,-5 -31.428571,-28.57142 2.142858,-39.28571 2.142858,-39.28571 0,0 -40.000001,-0.71429 -22.857143,-30 17.142857,-29.28571 33.214285,-10 33.214285,-10 0,0 -6.071428,16.42857 0.357143,-4.28571 6.428572,-20.71429 23.571423,-12.5 23.571423,-12.5 z"
           inkscape:connector-curvature="0"
           sodipodi:nodetypes="csscscscscscscscscsc" />
        <path
           style="fill:url(#linearGradient4460);fill-opacity:1;stroke:none"
           d="m 110.71428,137.21429 c 2.49889,-7.93445 7.92481,-14.91062 15.00001,-19.28572 7.37542,-4.56074 16.54794,-6.23995 24.99323,-4.27163 8.44529,1.96832 16.02101,7.64169 20.00676,15.34306 2.04889,3.95893 3.15911,8.39978 3.2143,12.85714 3.15626,-4.15103 7.40252,-7.46565 12.19558,-9.51981 4.79307,-2.05417 10.12176,-2.84311 15.30441,-2.2659 6.77693,0.75478 13.26722,3.87521 18.08886,8.69685 4.82164,4.82164 7.94207,11.31193 8.69685,18.08886 7.61107,-2.44707 16.07208,-2.15322 23.49504,0.81596 7.42297,2.96919 13.75256,8.59158 17.57639,15.61261 5.22672,9.59691 5.54236,21.70983 0.82254,31.56592 C 265.38843,214.70773 255.75354,222.05561 245,224 c 3.33266,4.60968 5.00388,10.39469 4.64285,16.07143 -0.47064,7.40027 -4.46837,14.49846 -10.55277,18.73703 -6.08441,4.23858 -14.12812,5.52881 -21.23294,3.40583 -8.38506,6.45241 -18.22473,11.00325 -28.57143,13.21428 -21.41947,4.57721 -44.83831,-1.41365 -61.42857,-15.71428 -2.91603,2.80675 -6.57079,4.83913 -10.49362,5.8354 -3.92282,0.99627 -8.10445,0.95409 -12.00638,-0.12112 -5.639279,-1.55395 -10.643069,-5.3022 -13.719707,-10.27719 -3.076638,-4.97499 -4.194857,-11.12616 -3.066004,-16.86567 -5.132913,-0.0748 -10.226495,-1.85753 -14.285715,-5 -6.089976,-4.71459 -9.655665,-12.51489 -9.236199,-20.20509 0.419466,-7.6902 4.812418,-15.05639 11.379057,-19.08062 -3.748241,0.39604 -7.595873,-0.18932 -11.056755,-1.68212 -3.460881,-1.49281 -6.527151,-3.88966 -8.811392,-6.88773 -2.284241,-2.99806 -3.781265,-6.59053 -4.301926,-10.3235 -0.52066,-3.73297 -0.06377,-7.59797 1.31293,-11.10665 2.429583,-6.19206 7.808924,-11.15007 14.17816,-13.06769 6.369235,-1.91762 13.591739,-0.75371 19.036125,3.06769 -0.05889,-1.436 0.06138,-2.87926 0.357143,-4.28571 1.043529,-4.96226 4.379011,-9.39352 8.858864,-11.7692 4.479849,-2.37568 10.019329,-2.65083 14.712559,-0.7308"
           id="path2985"
           inkscape:path-effect="#path-effect2987"
           inkscape:original-d="m 110.71428,137.21429 c 0,0 -12.857137,1.42857 15.00001,-19.28572 27.85714,-20.714283 50.71428,4.64286 44.99999,11.07143 -5.71428,6.42857 3.2143,12.85714 3.2143,12.85714 0,0 -0.35715,-11.78571 27.49999,-11.78571 27.85714,0 26.78571,26.78571 26.78571,26.78571 0,0 21.07143,8.57143 41.07143,16.42857 C 289.28571,181.14286 245,224 245,224 c 0,0 1.78571,-8.21428 4.64285,16.07143 2.85715,24.28572 -31.78571,22.14286 -31.78571,22.14286 0,0 -7.85714,1.07142 -28.57143,13.21428 -20.71428,12.14286 -61.42857,-15.71428 -61.42857,-15.71428 0,0 8.92857,21.42857 -22.5,5.71428 -31.428569,-15.71429 -16.785711,-27.14286 -16.785711,-27.14286 0,0 17.142861,23.57143 -14.285715,-5 C 42.857143,204.71429 76.428572,194 76.428572,194 c 0,0 -40.000001,-0.71429 -22.857143,-30 17.142857,-29.28571 33.214285,-10 33.214285,-10 0,0 -6.071428,16.42857 0.357143,-4.28571 6.428572,-20.71429 23.571423,-12.5 23.571423,-12.5 z"
           inkscape:connector-curvature="0"
           sodipodi:nodetypes="csscscscscscscscscsc"
           transform="translate(0,668.36218)" />
      </g>
    </g>
    <g
       id="g4420"
       transform="translate(-1152,0)">
      <g
         transform="translate(286.60123,-5.8803464)"
         style="opacity:0.9"
         id="g4288">
        <path
           style="fill:url(#linearGradient4426);fill-opacity:1;stroke:url(#linearGradient4428);stroke-width:10;stroke-miterlimit:4;stroke-dasharray:none"
           d="m -126.82948,828.08273 c 2.54638,-3.97495 5.94256,-7.40257 9.89389,-9.98545 5.34548,-3.4942 11.87695,-5.42672 18.19354,-4.48636 3.953342,0.58854 7.734113,2.29479 10.79091,4.86992 6.356176,-2.67191 13.652851,-3.03869 20.244929,-1.01766 9.250031,2.83592 16.883174,10.46907 19.719091,19.7191 6.736458,0.44406 13.206899,3.98212 17.2161,9.41382 4.101748,5.55708 5.541491,12.99289 3.810373,19.67935 -1.731119,6.68646 -6.598362,12.4894 -12.881473,15.35785 2.78559,5.09654 3.066009,11.48875 0.73742,16.80964 -1.616895,3.69465 -4.437926,6.85072 -7.928734,8.87039 -3.490808,2.01967 -7.632976,2.89229 -11.641896,2.45255 -8.113064,6.03158 -18.200026,9.36134 -28.3095,9.34514 -11.815191,-0.0189 -23.56263,-4.6582 -32.20261,-12.71734 -2.71079,1.68325 -5.91541,2.56018 -9.10555,2.49169 -3.19014,-0.0685 -6.35418,-1.08214 -8.99023,-2.88018 -2.61223,-1.78179 -4.69691,-4.32716 -5.92902,-7.23928 -1.23211,-2.91212 -1.60733,-6.18075 -1.06717,-9.29632 -4.5219,-1.65333 -8.51605,-4.71869 -11.28273,-8.65907 -3.29096,-4.68707 -4.80198,-10.59274 -4.16652,-16.28442 -3.26401,-5.11967 -4.12082,-11.70578 -2.27536,-17.49016 1.61185,-5.05216 5.23734,-9.43092 9.90008,-11.95703 2.44895,-3.82883 6.26966,-6.7598 10.60221,-8.13324 4.79321,-1.51947 10.17037,-1.10275 14.67225,1.13706"
           id="path2985-2-3"
           inkscape:path-effect="#path-effect2987-54-2"
           inkscape:original-d="m -126.82948,828.08273 c 0,0 -10.61397,5.26398 9.89389,-9.98545 20.50785,-15.24943 22.40028,-9.21893 18.19354,-4.48636 -4.20674,4.73258 10.79091,4.86992 10.79091,4.86992 0,0 -0.26293,-1.01766 20.244929,-1.01766 20.507861,0 19.719091,19.7191 19.719091,19.7191 0,0 2.49251,3.62954 17.2161,9.41382 14.72359,5.78427 -9.0711,35.0372 -9.0711,35.0372 0,0 -1.36595,-1.06901 0.73742,16.80964 2.10337,17.87865 -19.57063,11.32294 -19.57063,11.32294 0,0 -13.060061,0.40583 -28.3095,9.34514 -15.24944,8.93932 -32.20261,-12.71734 -32.20261,-12.71734 0,0 5.04128,11.18004 -18.09578,-0.38849 -23.13708,-11.56855 -6.99619,-16.5356 -6.99619,-16.5356 0,0 11.85435,12.37463 -11.28273,-8.65907 -23.13707,-21.0337 -4.16652,-16.28442 -4.16652,-16.28442 0,0 -14.89558,4.06938 -2.27536,-17.49016 12.62023,-21.55953 9.90008,-11.95703 9.90008,-11.95703 0,0 24.02306,0.51681 10.60221,-8.13324 -663.24248,-427.47522 14.67225,1.13706 14.67225,1.13706 z"
           inkscape:connector-curvature="0"
           sodipodi:nodetypes="csscscscscscscscscsc" />
        <path
           style="fill:url(#linearGradient4430);fill-opacity:1;stroke:none"
           d="m -128.82948,826.08273 c 2.54638,-3.97495 5.94256,-7.40257 9.89389,-9.98545 5.34548,-3.4942 11.87695,-5.42672 18.19354,-4.48636 3.953342,0.58854 7.734113,2.29479 10.79091,4.86992 6.356176,-2.67191 13.652851,-3.03869 20.244929,-1.01766 9.250032,2.83592 16.883175,10.46907 19.719093,19.7191 6.736457,0.44406 13.206898,3.98212 17.216099,9.41382 4.101748,5.55708 5.541491,12.99289 3.810373,19.67935 -1.731118,6.68646 -6.598361,12.4894 -12.881472,15.35785 2.785588,5.09654 3.066005,11.48875 0.737415,16.80964 -1.616895,3.69465 -4.437925,6.85072 -7.928732,8.87039 -3.490807,2.01967 -7.632973,2.89228 -11.641892,2.45255 -8.113065,6.03158 -18.200028,9.36135 -28.309503,9.34514 -11.81519,-0.0189 -23.56263,-4.6582 -32.20261,-12.71734 -2.71079,1.68325 -5.91541,2.56018 -9.10555,2.49169 -3.19014,-0.0685 -6.35418,-1.08214 -8.99023,-2.88018 -2.61223,-1.78179 -4.69691,-4.32716 -5.92902,-7.23928 -1.23211,-2.91212 -1.60733,-6.18075 -1.06717,-9.29632 -4.5219,-1.65333 -8.51605,-4.71869 -11.28273,-8.65907 -3.29096,-4.68707 -4.80198,-10.59274 -4.16652,-16.28442 -3.26401,-5.11967 -4.12082,-11.70578 -2.27536,-17.49016 1.61185,-5.05216 5.23734,-9.43092 9.90008,-11.95703 2.44895,-3.82883 6.26966,-6.7598 10.60221,-8.13324 4.79321,-1.51947 10.17037,-1.10275 14.67225,1.13706"
           id="path2985-2"
           inkscape:path-effect="#path-effect2987-54"
           inkscape:original-d="m -128.82948,826.08273 c 0,0 -10.61397,5.26398 9.89389,-9.98545 20.50785,-15.24943 22.40028,-9.21893 18.19354,-4.48636 -4.20674,4.73258 10.79091,4.86992 10.79091,4.86992 0,0 -0.26293,-1.01766 20.244929,-1.01766 20.507857,0 19.719093,19.7191 19.719093,19.7191 0,0 2.492507,3.62954 17.216099,9.41382 14.723591,5.78427 -9.071099,35.0372 -9.071099,35.0372 0,0 -1.365954,-1.06901 0.737415,16.80964 2.103375,17.87865 -19.570624,11.32294 -19.570624,11.32294 0,0 -13.060064,0.40583 -28.309503,9.34514 -15.24944,8.93932 -32.20261,-12.71734 -32.20261,-12.71734 0,0 5.04128,11.18004 -18.09578,-0.38849 -23.13708,-11.56855 -6.99619,-16.5356 -6.99619,-16.5356 0,0 11.85435,12.37463 -11.28273,-8.65907 -23.13707,-21.0337 -4.16652,-16.28442 -4.16652,-16.28442 0,0 -14.89558,4.06938 -2.27536,-17.49016 12.62023,-21.55953 9.90008,-11.95703 9.90008,-11.95703 0,0 24.02306,0.51681 10.60221,-8.13324 -663.24248,-427.47522 14.67225,1.13706 14.67225,1.13706 z"
           inkscape:connector-curvature="0"
           sodipodi:nodetypes="csscscscscscscscscsc" />
      </g>
    </g>
    <g
       id="g4438"
       transform="translate(398.85712,0)">
      <g
         transform="translate(-1092.9249,-11.943762)"
         style="opacity:0.5"
         id="g4296">
        <path
           inkscape:connector-curvature="0"
           style="fill:url(#linearGradient4444);fill-opacity:1;stroke:url(#linearGradient4446);stroke-width:10;stroke-miterlimit:4;stroke-dasharray:none"
           d="m 465.5,754.64343 c -8.02081,0.2193 -15.97616,2.61637 -22.8125,6.84375 -9.53901,5.89865 -16.88092,15.30253 -20.25,26.00001 -4.71527,-4.41142 -11.23959,-6.78243 -17.6875,-6.4375 -6.4479,0.34493 -12.71977,3.39196 -16.9375,8.28125 -3.74219,4.33803 -5.86065,10.05218 -5.84375,15.78125 -5.89214,0.60144 -11.5886,2.97964 -16.15625,6.75 -4.56765,3.77036 -7.98035,8.92236 -9.6875,14.59375 -2.27334,7.55232 -1.43816,15.98253 2.28125,22.9375 3.71941,6.95496 10.269,12.35381 17.8125,14.65624 -5.39304,1.20934 -10.44603,3.89737 -14.46875,7.6875 -4.02273,3.79012 -7.00322,8.68846 -8.53125,14 -1.52803,5.31154 -1.58125,11.02666 -0.1875,16.375 1.39375,5.34835 4.23028,10.29725 8.15625,14.1875 4.0191,3.98253 9.1512,6.8493 14.65625,8.15625 5.50505,1.30695 11.3697,1.06353 16.75,-0.6875 -3.17642,7.80995 -2.89317,16.95907 0.75,24.5625 3.64317,7.60343 10.61044,13.51964 18.6875,15.9375 6.05576,1.81279 12.65256,1.69584 18.625,-0.375 5.97244,-2.07085 11.27251,-6.07754 14.90625,-11.25 8.10347,15.58149 22.33654,27.86162 38.9375,33.59375 16.60096,5.73213 35.38395,4.85567 51.375,-2.40625 12.84347,-5.83253 23.83814,-15.67857 31.03125,-27.8125 8.68029,0.0684 17.34028,-2.90588 24.15625,-8.28125 6.81597,-5.37538 11.73086,-13.10533 13.6875,-21.5625 1.65313,-7.1453 1.21995,-14.78189 -1.25,-21.6875 8.69214,0.0747 17.38594,-2.24344 24.875,-6.65625 7.48906,-4.41281 13.75974,-10.89153 17.90625,-18.53125 4.14651,-7.63972 6.16186,-16.40963 5.78125,-25.09374 -0.38062,-8.68412 -3.16975,-17.25235 -7.96875,-24.5 -6.58336,-9.94246 -16.99034,-17.31034 -28.5625,-20.1875 -11.57217,-2.87716 -24.1833,-1.23304 -34.65625,4.46875 1.51785,-8.41391 0.0874,-17.34867 -3.96875,-24.875 -4.05612,-7.52634 -10.70012,-13.61007 -18.5625,-16.96875 -9.42988,-4.02835 -20.50548,-4.02329 -29.9375,0 -9.43202,4.02329 -17.09972,11.99935 -20.71875,21.59375 -0.0744,-6.00955 -1.58137,-11.97495 -4.34375,-17.3125 -5.37371,-10.38322 -15.58255,-18.03375 -26.96875,-20.68751 -3.55819,-0.82929 -7.22918,-1.19342 -10.875,-1.09375 z m -16.84375,80.09376 c 3.40362,0.117 6.7565,1.48808 9.25,3.8125 -5.24909,0.0417 -10.46669,1.8061 -14.65625,4.96875 -3.65917,2.76227 -6.51399,6.56325 -8.15625,10.84375 -1.71048,-4.13865 -1.32243,-9.09646 1.03125,-12.90625 2.35367,-3.80977 6.59593,-6.36502 11.0625,-6.6875 0.48572,-0.0351 0.98252,-0.048 1.46875,-0.0312 z m 74.53125,10.28125 c 0.5587,0.0129 1.13374,0.0744 1.6875,0.15625 4.43007,0.65468 8.46825,3.5253 10.53125,7.5 1.79474,3.45783 2.06256,7.67565 0.75,11.34374 -2.11462,-4.80448 -5.81306,-8.9032 -10.375,-11.49999 -3.98442,-2.26806 -8.6065,-3.37241 -13.1875,-3.1875 2.73392,-2.80707 6.68283,-4.40289 10.59375,-4.3125 z m 16.625,26.68749 c 2.6099,-0.053 5.25234,0.78903 7.28125,2.4375 2.70518,2.19796 4.26052,5.73882 4.0625,9.21875 -0.17226,3.02741 -1.66437,5.97242 -4,7.90625 0.49308,-4.05585 -0.35302,-8.26221 -2.375,-11.8125 -1.766,-3.10084 -4.42277,-5.71031 -7.5625,-7.40625 0.84142,-0.22654 1.72378,-0.32607 2.59375,-0.34375 z m -32.46875,50.3125 c -0.49512,3.45021 -2.72558,6.63132 -5.8125,8.25 -3.08691,1.61866 -6.9742,1.64858 -10.09375,0.0937 -2.71391,-1.35262 -4.80069,-3.87214 -5.65625,-6.78125 3.53237,2.05316 7.72123,2.92611 11.78125,2.46875 3.54604,-0.39946 6.98421,-1.81524 9.78125,-4.03125 z"
           id="path2985-7-9" />
        <path
           inkscape:connector-curvature="0"
           style="fill:url(#linearGradient4448);fill-opacity:1;stroke:none"
           d="m 463.5,84.28125 c -8.02081,0.219292 -15.97616,2.616361 -22.8125,6.84375 -9.53901,5.89864 -16.88092,15.30252 -20.25,26 -4.71527,-4.41142 -11.23959,-6.78243 -17.6875,-6.4375 -6.4479,0.34493 -12.71977,3.39196 -16.9375,8.28125 -3.74219,4.33803 -5.86065,10.05218 -5.84375,15.78125 -5.89214,0.60144 -11.5886,2.97964 -16.15625,6.75 -4.56765,3.77036 -7.98035,8.92236 -9.6875,14.59375 -2.27334,7.55232 -1.43816,15.98253 2.28125,22.9375 3.71941,6.95497 10.269,12.35382 17.8125,14.65625 -5.39304,1.20934 -10.44603,3.89737 -14.46875,7.6875 -4.02273,3.79012 -7.00322,8.68846 -8.53125,14 -1.52803,5.31154 -1.58125,11.02666 -0.1875,16.375 1.39375,5.34835 4.23028,10.29725 8.15625,14.1875 4.0191,3.98253 9.1512,6.8493 14.65625,8.15625 5.50505,1.30695 11.3697,1.06353 16.75,-0.6875 -3.17642,7.80995 -2.89317,16.95907 0.75,24.5625 3.64317,7.60343 10.61044,13.51964 18.6875,15.9375 6.05576,1.81279 12.65256,1.69584 18.625,-0.375 5.97244,-2.07085 11.27251,-6.07754 14.90625,-11.25 8.10347,15.58149 22.33654,27.86162 38.9375,33.59375 16.60096,5.73213 35.38395,4.85567 51.375,-2.40625 12.84347,-5.83253 23.83814,-15.67857 31.03125,-27.8125 8.68029,0.0684 17.34028,-2.90588 24.15625,-8.28125 6.81597,-5.37538 11.73086,-13.10533 13.6875,-21.5625 1.65313,-7.1453 1.21995,-14.78189 -1.25,-21.6875 8.69214,0.0747 17.38594,-2.24344 24.875,-6.65625 7.48906,-4.41281 13.75974,-10.89153 17.90625,-18.53125 4.14651,-7.63972 6.16186,-16.40963 5.78125,-25.09375 -0.38062,-8.68412 -3.16975,-17.25235 -7.96875,-24.5 -6.58336,-9.94246 -16.99034,-17.31034 -28.5625,-20.1875 -11.57217,-2.87716 -24.1833,-1.23304 -34.65625,4.46875 1.51785,-8.41391 0.0874,-17.34867 -3.96875,-24.875 -4.05612,-7.52634 -10.70012,-13.61007 -18.5625,-16.96875 -9.42988,-4.02835 -20.50548,-4.02329 -29.9375,0 -9.43202,4.02329 -17.09972,11.99935 -20.71875,21.59375 -0.0744,-6.00955 -1.58137,-11.97495 -4.34375,-17.3125 C 495.97004,95.67928 485.7612,88.02876 474.375,85.375 470.81681,84.545703 467.14582,84.181572 463.5,84.28125 z M 446.65625,164.375 c 3.40362,0.117 6.7565,1.48808 9.25,3.8125 -5.24909,0.0417 -10.46669,1.8061 -14.65625,4.96875 -3.65917,2.76227 -6.51399,6.56325 -8.15625,10.84375 -1.71048,-4.13865 -1.32243,-9.09646 1.03125,-12.90625 2.35367,-3.80977 6.59593,-6.36502 11.0625,-6.6875 0.48572,-0.0351 0.98252,-0.048 1.46875,-0.0312 z m 74.53125,10.28125 c 0.5587,0.0129 1.13374,0.0744 1.6875,0.15625 4.43007,0.65468 8.46825,3.5253 10.53125,7.5 1.79474,3.45784 2.06256,7.67566 0.75,11.34375 -2.11462,-4.80448 -5.81306,-8.9032 -10.375,-11.5 -3.98442,-2.26806 -8.6065,-3.37241 -13.1875,-3.1875 2.73392,-2.80707 6.68283,-4.40289 10.59375,-4.3125 z m 16.625,26.6875 c 2.6099,-0.053 5.25234,0.78903 7.28125,2.4375 2.70518,2.19796 4.26052,5.73882 4.0625,9.21875 -0.17226,3.02741 -1.66437,5.97242 -4,7.90625 0.49308,-4.05585 -0.35302,-8.26221 -2.375,-11.8125 -1.766,-3.10084 -4.42277,-5.71031 -7.5625,-7.40625 0.84142,-0.22654 1.72378,-0.32607 2.59375,-0.34375 z m -32.46875,50.3125 c -0.49512,3.45021 -2.72558,6.63132 -5.8125,8.25 -3.08691,1.61866 -6.9742,1.64858 -10.09375,0.0937 -2.71391,-1.35262 -4.80069,-3.87214 -5.65625,-6.78125 3.53237,2.05316 7.72123,2.92611 11.78125,2.46875 3.54604,-0.39946 6.98421,-1.81524 9.78125,-4.03125 z"
           transform="translate(0,668.36218)"
           id="path2985-7" />
      </g>
    </g>
    <g
       id="g4432">
      <g
         transform="matrix(0.90906499,0,0,0.90906499,-661.80084,67.380718)"
         style="opacity:0.2"
         id="g4300">
        <path
           inkscape:connector-curvature="0"
           style="fill:url(#linearGradient4468);fill-opacity:1;stroke:url(#linearGradient4470);stroke-width:10;stroke-miterlimit:4;stroke-dasharray:none"
           d="m 892.46875,716.04973 c -0.60579,-0.003 -1.2074,0.0147 -1.8125,0.0312 -10.64979,0.29118 -21.20416,3.48076 -30.28125,9.09375 -12.6656,7.83204 -22.4329,20.29622 -26.90626,34.5 -6.26079,-5.85734 -14.90741,-8.98924 -23.46875,-8.53125 -8.56132,0.45799 -16.89983,4.50815 -22.5,11 -4.96877,5.7599 -7.77244,13.33061 -7.75,20.9375 -7.82341,0.79857 -15.40396,3.96258 -21.46875,8.96875 -6.06478,5.00617 -10.57704,11.8447 -12.84374,19.375 -3.01847,10.02773 -1.90727,21.23416 3.03125,30.46875 4.93851,9.23459 13.64022,16.3804 23.65624,19.4375 -7.16071,1.60573 -13.8775,5.18633 -19.21875,10.21875 -5.34125,5.0324 -9.31487,11.54125 -11.34374,18.59375 -2.02887,7.0525 -2.10058,14.64864 -0.25,21.75 1.85058,7.10138 5.63097,13.64714 10.84374,18.8125 5.33644,5.28788 12.15931,9.10842 19.46875,10.84375 7.30944,1.73533 15.07495,1.41871 22.21875,-0.90625 -4.21756,10.36981 -3.83729,22.49815 1,32.59375 4.83729,10.0956 14.08803,17.97714 24.8125,21.1875 8.04066,2.40697 16.81997,2.2496 24.75001,-0.5 7.93002,-2.74961 14.95648,-8.06967 19.78125,-14.9375 10.75954,20.68862 29.64525,36.98282 51.6875,44.59372 22.04224,7.611 46.98632,6.4547 68.21875,-3.1875 17.05315,-7.7443 31.66795,-20.82641 41.21875,-36.93747 11.5254,0.0908 23.0125,-3.86275 32.0625,-11 9.0501,-7.13727 15.5895,-17.39583 18.1875,-28.625 2.1949,-9.48731 1.592,-19.61219 -1.6875,-28.78125 11.5411,0.0992 23.0876,-2.98456 33.0312,-8.84375 9.9445,-5.8592 18.2757,-14.48121 23.7813,-24.625 5.5056,-10.14378 8.1929,-21.782 7.6875,-33.3125 -0.5053,-11.5305 -4.2218,-22.90805 -10.5938,-32.53125 -8.7409,-13.2013 -22.5411,-22.99229 -37.9062,-26.8125 -15.3652,-3.8202 -32.1258,-1.63316 -46.0312,5.9375 2.0146,-11.17173 0.1356,-23.03802 -5.25,-33.03125 -5.3859,-9.99324 -14.2169,-18.07169 -24.6563,-22.53125 -12.5207,-5.34872 -27.22645,-5.342 -39.75,0 -12.52355,5.342 -22.69476,15.94835 -27.5,28.6875 -0.0988,-7.97929 -2.11345,-15.91297 -5.78125,-23 -7.13505,-13.78653 -20.69425,-23.94516 -35.8125,-27.46875 -4.13389,-0.96346 -8.38449,-1.44981 -12.625,-1.46875 z m 110.68745,75.96875 c 6.7174,0.10007 13.39,2.32712 18.7813,6.34375 7.4318,5.5368 12.256,14.43859 12.8437,23.6875 -4.7051,-6.82116 -11.1767,-12.39909 -18.625,-16.03125 -7.4482,-3.63216 -15.853,-5.3052 -24.12495,-4.8125 -4.96529,0.29575 -9.88938,1.33766 -14.53125,3.125 5.09198,-6.52229 12.79939,-10.92729 21,-12.03125 1.5376,-0.20699 3.1062,-0.30434 4.6562,-0.28125 z m -175.99996,6.6875 c 3.47343,-0.0259 6.95194,0.49795 10.25,1.59375 -8.08763,1.80515 -15.71559,5.73778 -21.875,11.28125 -6.15941,5.54346 -10.85585,12.70905 -13.5,20.5625 -1.58716,4.71407 -2.44815,9.65161 -2.53125,14.625 -4.13783,-7.16568 -5.33197,-15.95232 -3.28125,-23.96875 2.05071,-8.01642 7.33574,-15.17032 14.40625,-19.46875 4.94938,-3.00892 10.74221,-4.58179 16.53125,-4.625 z m 78.90626,3.4375 c 9.0799,-0.15092 18.22559,2.80027 25.40625,8.375 8.83774,6.86121 14.56853,17.5594 15.375,28.71875 -6.22328,-6.21796 -13.98941,-10.84717 -22.40625,-13.40625 -10.17821,-3.09463 -21.26546,-3.1148 -31.4375,0 -10.17206,3.11481 -19.3934,9.33068 -26.09375,17.59375 -0.14947,-4.62 0.54001,-9.26083 1.96875,-13.65625 -2.75966,1.08116 -5.37909,2.52273 -7.75,4.3125 -4.85853,3.66766 -8.6632,8.72273 -10.84375,14.40625 -2.27112,-5.49517 -1.75015,-12.09773 1.375,-17.15625 3.12513,-5.0585 8.75693,-8.44682 14.6875,-8.875 0.32246,-0.0233 0.64253,-0.0239 0.96875,-0.0312 0.32622,-0.007 0.64595,-0.0111 0.96875,0 1.19371,0.041 2.39804,0.20268 3.5625,0.46875 1.13712,-2.08549 2.47435,-4.08971 3.96875,-5.9375 5.97762,-7.39114 14.64491,-12.53241 24,-14.21875 2.06456,-0.37216 4.15464,-0.55892 6.25,-0.59375 z M 974.5,831.29973 c 2.38824,-0.0123 4.7875,0.28354 7.09375,0.90625 6.14999,1.66056 11.64986,5.59835 15.21875,10.875 4.2006,6.21067 5.6225,14.22394 3.8125,21.5 -0.77012,3.0957 -2.13074,6.02845 -3.9375,8.65625 0.81769,0.42662 1.59598,0.91783 2.3125,1.5 3.5918,2.91839 5.6379,7.62945 5.375,12.25 -0.2056,3.61343 -1.8588,7.11506 -4.4375,9.65625 0.7852,4.18102 0.9434,8.50214 0.375,12.71875 -1.27,9.42062 -6.03732,18.32561 -13.15625,24.625 -8.37904,7.41443 -19.94678,11.05511 -31.0625,9.78125 -3.62072,-0.41493 -7.16383,-1.36227 -10.53125,-2.75 -1.22915,3.49014 -3.79039,6.53421 -7.0625,8.25 -4.0987,2.1492 -9.26421,2.18952 -13.40625,0.125 -3.60345,-1.79597 -6.36401,-5.13737 -7.5,-9 4.69017,2.72613 10.23423,3.88852 15.625,3.28125 3.63815,-0.40984 7.19984,-1.63627 10.34375,-3.53125 -6.15521,-2.92837 -11.57916,-7.38042 -15.53125,-12.9375 8.54733,2.08193 17.60315,2.02784 26.125,-0.15625 10.3052,-2.64112 19.76849,-8.43062 26.84375,-16.375 7.07526,-7.94439 11.72143,-18.02142 13.15625,-28.5625 2.26811,3.474 3.96989,7.3108 5.0625,11.3125 -0.15761,-4.06457 -1.2677,-8.08953 -3.28125,-11.625 -0.8434,-1.48088 -1.841,-2.89986 -2.96875,-4.1875 -1.73037,1.64201 -3.67341,3.06734 -5.78125,4.1875 0.95621,-2.47528 1.64016,-5.063 2.03125,-7.6875 -1.05547,-0.80768 -2.17868,-1.52693 -3.34375,-2.15625 1.11721,-0.3008 2.28238,-0.41402 3.4375,-0.4375 0.0619,-10e-4 0.12562,5.1e-4 0.1875,0 0.18216,-2.36944 0.13102,-4.73464 -0.15625,-7.09375 -0.54593,-4.48329 -1.94719,-8.87069 -4.09375,-12.84375 0.56939,3.23726 0.3258,6.62499 -0.78125,9.71875 -2.80772,-6.37924 -7.72405,-11.83331 -13.78125,-15.28125 -5.29039,-3.01146 -11.41749,-4.46427 -17.5,-4.21875 3.40313,-3.49419 8.22568,-5.5712 13.09375,-5.71875 0.32454,-0.01 0.6442,-0.007 0.96875,0 0.59708,0.0138 1.21099,0.0522 1.8125,0.125 -1.96022,-0.9398 -3.9954,-1.71179 -6.09375,-2.28125 3.58733,-1.72704 7.55086,-2.60442 11.53125,-2.625 z m -121.4375,32.15625 c -1.93795,7.05288 -2.10799,14.58341 -0.5,21.71875 1.94448,8.62853 6.50713,16.64562 12.9375,22.71875 6.43037,6.07313 14.68077,10.17635 23.40625,11.625 -6.74132,4.12533 -14.98292,5.72193 -22.78125,4.4375 -7.79833,-1.28443 -15.09406,-5.46181 -20.15625,-11.53125 -5.95824,-7.14378 -8.70386,-16.85553 -7.37501,-26.0625 1.32884,-9.20698 6.73365,-17.73883 14.46876,-22.90625 z m 189.3125,4.0625 c 6.9017,4.56465 11.9125,11.88002 13.6562,19.96875 1.744,8.08872 0.2203,16.84089 -4.1874,23.84375 -4.9368,7.84325 -13.4508,13.34461 -22.625,14.65625 6.4309,-5.2259 11.4945,-12.10232 14.5312,-19.8125 3.0366,-7.71018 4.0464,-16.22964 2.9062,-24.4375 -0.6842,-4.9268 -2.1352,-9.73136 -4.2812,-14.21875 z m -162.40625,84.5 c 5.18141,6.46693 12.06097,11.56639 19.75,14.65625 7.68903,3.0898 16.15947,4.17715 24.375,3.09375 4.93141,-0.65027 9.77915,-2.07253 14.28125,-4.1875 -4.61219,6.87002 -11.99318,11.81209 -20.09375,13.5 -8.10057,1.68802 -16.84024,0.081 -23.8125,-4.375 -7.80898,-4.99073 -13.2517,-13.50436 -14.5,-22.6875 z"
           id="path2985-7-3-8" />
        <path
           inkscape:connector-curvature="0"
           style="fill:url(#linearGradient4472);fill-opacity:1;stroke:none"
           d="m 890.46875,45.6875 c -0.60579,-0.0027 -1.2074,0.01471 -1.8125,0.03125 -10.64979,0.29118 -21.20416,3.48076 -30.28125,9.09375 -12.6656,7.83204 -22.43289,20.29622 -26.90625,34.5 C 825.20796,83.45516 816.56134,80.32326 808,80.78125 c -8.56132,0.45799 -16.89983,4.50815 -22.5,11 -4.96877,5.7599 -7.77244,13.33061 -7.75,20.9375 -7.82341,0.79857 -15.40396,3.96258 -21.46875,8.96875 -6.06478,5.00617 -10.57705,11.8447 -12.84375,19.375 -3.01847,10.02773 -1.90727,21.23416 3.03125,30.46875 4.93852,9.23459 13.64023,16.3804 23.65625,19.4375 -7.16071,1.60573 -13.8775,5.18633 -19.21875,10.21875 -5.34126,5.0324 -9.31488,11.54125 -11.34375,18.59375 -2.02887,7.0525 -2.10058,14.64864 -0.25,21.75 1.85058,7.10138 5.63097,13.64714 10.84375,18.8125 5.33644,5.28788 12.15931,9.10842 19.46875,10.84375 7.30944,1.73533 15.07495,1.41871 22.21875,-0.90625 -4.21756,10.36981 -3.83729,22.49815 1,32.59375 4.83729,10.0956 14.08803,17.97714 24.8125,21.1875 8.04066,2.40697 16.81997,2.2496 24.75,-0.5 7.93002,-2.74961 14.95648,-8.06967 19.78125,-14.9375 10.75954,20.68862 29.64525,36.98285 51.6875,44.59375 22.04224,7.611 46.98632,6.4547 68.21875,-3.1875 17.05316,-7.7443 31.66795,-20.82644 41.21875,-36.9375 11.5254,0.0908 23.0125,-3.86275 32.0625,-11 9.0501,-7.13727 15.5895,-17.39583 18.1875,-28.625 2.1949,-9.48731 1.592,-19.61219 -1.6875,-28.78125 11.5411,0.0992 23.0876,-2.98456 33.0312,-8.84375 9.9445,-5.8592 18.2757,-14.48121 23.7813,-24.625 5.5056,-10.14378 8.1929,-21.782 7.6875,-33.3125 -0.5053,-11.5305 -4.2218,-22.90805 -10.5938,-32.53125 -8.7409,-13.2013 -22.5411,-22.99229 -37.9062,-26.8125 -15.3652,-3.8202 -32.1258,-1.63316 -46.0312,5.9375 2.0146,-11.17173 0.1356,-23.03802 -5.25,-33.03125 -5.3859,-9.99324 -14.2169,-18.07169 -24.6563,-22.53125 -12.52074,-5.34872 -27.22645,-5.342 -39.75,0 -12.52355,5.342 -22.69476,15.94835 -27.5,28.6875 -0.0988,-7.97929 -2.11345,-15.91297 -5.78125,-23 -7.13505,-13.78653 -20.69425,-23.94516 -35.8125,-27.46875 -4.13389,-0.963462 -8.38449,-1.449812 -12.625,-1.46875 z m 110.68745,75.96875 c 6.7174,0.10007 13.39,2.32712 18.7813,6.34375 7.4318,5.5368 12.256,14.43859 12.8437,23.6875 -4.7051,-6.82116 -11.1767,-12.39909 -18.625,-16.03125 -7.4482,-3.63216 -15.85298,-5.3052 -24.12495,-4.8125 -4.96529,0.29575 -9.88938,1.33766 -14.53125,3.125 5.09198,-6.52229 12.79939,-10.92729 21,-12.03125 1.5376,-0.20699 3.10617,-0.30434 4.6562,-0.28125 z m -175.99995,6.6875 c 3.47343,-0.0259 6.95194,0.49795 10.25,1.59375 -8.08763,1.80515 -15.71559,5.73778 -21.875,11.28125 -6.15941,5.54346 -10.85585,12.70905 -13.5,20.5625 -1.58716,4.71407 -2.44815,9.65161 -2.53125,14.625 -4.13783,-7.16568 -5.33197,-15.95232 -3.28125,-23.96875 2.05071,-8.01642 7.33574,-15.17032 14.40625,-19.46875 4.94938,-3.00892 10.74221,-4.58179 16.53125,-4.625 z m 78.90625,3.4375 c 9.0799,-0.15092 18.22559,2.80027 25.40625,8.375 8.83774,6.86121 14.56853,17.5594 15.375,28.71875 -6.22328,-6.21796 -13.98941,-10.84717 -22.40625,-13.40625 -10.17821,-3.09463 -21.26546,-3.1148 -31.4375,0 -10.17206,3.11481 -19.3934,9.33068 -26.09375,17.59375 -0.14947,-4.62 0.54001,-9.26083 1.96875,-13.65625 -2.75966,1.08116 -5.37909,2.52273 -7.75,4.3125 -4.85853,3.66766 -8.6632,8.72273 -10.84375,14.40625 -2.27112,-5.49517 -1.75015,-12.09773 1.375,-17.15625 3.12513,-5.0585 8.75693,-8.44682 14.6875,-8.875 0.32246,-0.0233 0.64253,-0.0239 0.96875,-0.0312 0.32622,-0.007 0.64595,-0.0111 0.96875,0 1.19371,0.041 2.39804,0.20268 3.5625,0.46875 1.13712,-2.08549 2.47435,-4.08971 3.96875,-5.9375 5.97762,-7.39114 14.64491,-12.53241 24,-14.21875 2.06456,-0.37216 4.15464,-0.55892 6.25,-0.59375 z M 972.5,160.9375 c 2.38824,-0.0123 4.7875,0.28354 7.09375,0.90625 6.14999,1.66056 11.64986,5.59835 15.21875,10.875 4.20061,6.21067 5.6225,14.22394 3.8125,21.5 -0.77012,3.0957 -2.13074,6.02845 -3.9375,8.65625 0.81769,0.42662 1.59598,0.91783 2.3125,1.5 3.5918,2.91839 5.6379,7.62945 5.375,12.25 -0.2056,3.61343 -1.8588,7.11506 -4.4375,9.65625 0.78518,4.18102 0.94344,8.50214 0.375,12.71875 -1.27,9.42062 -6.03732,18.32561 -13.15625,24.625 -8.37904,7.41443 -19.94678,11.05511 -31.0625,9.78125 -3.62072,-0.41493 -7.16383,-1.36227 -10.53125,-2.75 -1.22915,3.49014 -3.79039,6.53421 -7.0625,8.25 -4.0987,2.1492 -9.26421,2.18952 -13.40625,0.125 -3.60345,-1.79597 -6.36401,-5.13737 -7.5,-9 4.69017,2.72613 10.23423,3.88852 15.625,3.28125 3.63815,-0.40984 7.19984,-1.63627 10.34375,-3.53125 -6.15521,-2.92837 -11.57916,-7.38042 -15.53125,-12.9375 8.54733,2.08193 17.60315,2.02784 26.125,-0.15625 10.3052,-2.64112 19.76849,-8.43062 26.84375,-16.375 7.07526,-7.94439 11.72143,-18.02142 13.15625,-28.5625 2.26811,3.474 3.96989,7.3108 5.0625,11.3125 -0.15761,-4.06457 -1.2677,-8.08953 -3.28125,-11.625 -0.8434,-1.48088 -1.841,-2.89986 -2.96875,-4.1875 -1.73037,1.64201 -3.67341,3.06734 -5.78125,4.1875 0.95621,-2.47528 1.64016,-5.063 2.03125,-7.6875 -1.05547,-0.80768 -2.17868,-1.52693 -3.34375,-2.15625 1.11721,-0.3008 2.28238,-0.41402 3.4375,-0.4375 0.0619,-0.001 0.12562,5.1e-4 0.1875,0 0.18216,-2.36944 0.13102,-4.73464 -0.15625,-7.09375 -0.54593,-4.48329 -1.94719,-8.87069 -4.09375,-12.84375 0.56939,3.23726 0.3258,6.62499 -0.78125,9.71875 -2.80772,-6.37924 -7.72405,-11.83331 -13.78125,-15.28125 -5.29039,-3.01146 -11.41749,-4.46427 -17.5,-4.21875 3.40313,-3.49419 8.22568,-5.5712 13.09375,-5.71875 0.32454,-0.01 0.6442,-0.007 0.96875,0 0.59708,0.0138 1.21099,0.0522 1.8125,0.125 -1.96022,-0.9398 -3.9954,-1.71179 -6.09375,-2.28125 3.58733,-1.72704 7.55086,-2.60442 11.53125,-2.625 z m -121.4375,32.15625 c -1.93795,7.05288 -2.10799,14.58341 -0.5,21.71875 1.94448,8.62853 6.50713,16.64562 12.9375,22.71875 6.43037,6.07313 14.68077,10.17635 23.40625,11.625 -6.74132,4.12533 -14.98292,5.72193 -22.78125,4.4375 -7.79833,-1.28443 -15.09406,-5.46181 -20.15625,-11.53125 -5.95824,-7.14378 -8.70385,-16.85553 -7.375,-26.0625 1.32884,-9.20698 6.73364,-17.73883 14.46875,-22.90625 z m 189.3125,4.0625 c 6.9017,4.56465 11.9125,11.88002 13.6562,19.96875 1.744,8.08872 0.2203,16.84089 -4.1874,23.84375 -4.9368,7.84325 -13.4508,13.34461 -22.625,14.65625 6.4309,-5.2259 11.4945,-12.10232 14.5312,-19.8125 3.0366,-7.71018 4.0464,-16.22964 2.9062,-24.4375 -0.6842,-4.9268 -2.1352,-9.73136 -4.2812,-14.21875 z m -162.40625,84.5 c 5.18141,6.46693 12.06097,11.56639 19.75,14.65625 7.68903,3.0898 16.15947,4.17715 24.375,3.09375 4.93141,-0.65027 9.77915,-2.07253 14.28125,-4.1875 -4.61219,6.87002 -11.99318,11.81209 -20.09375,13.5 -8.10057,1.68802 -16.84024,0.081 -23.8125,-4.375 -7.80898,-4.99073 -13.2517,-13.50436 -14.5,-22.6875 z"
           transform="translate(0,668.36218)"
           id="path2985-7-3" />
      </g>
    </g>
    <g
       id="g4354"
       transform="translate(-1536,0)">
      <g
         transform="translate(481.22025,-4.3789089)"
         id="g4284">
        <path
           style="fill:url(#linearGradient4360);fill-opacity:1;stroke:url(#linearGradient4362);stroke-width:10;stroke-miterlimit:4;stroke-opacity:1;stroke-dasharray:none"
           d="m -308.43181,842.70903 c 1.21877,-2.61048 3.36484,-4.77641 5.96398,-6.01917 2.73558,-1.308 5.89799,-1.58381 8.88946,-1.08852 2.74917,0.45518 5.39086,1.54733 7.65885,3.16639 4.77122,-1.25719 10.13574,0.028 13.81934,3.3107 2.15751,1.92271 3.74126,4.48134 4.49993,7.2699 2.17313,1.60969 4.11873,3.52607 5.76112,5.67459 4.30794,5.63551 6.43296,12.89717 5.84276,19.96605 -0.24141,2.39722 -1.13378,4.7257 -2.55631,6.67027 -1.56769,2.14299 -3.77694,3.81032 -6.26769,4.73024 -2.49074,0.91991 -5.25339,1.08887 -7.83768,0.47934 -3.75933,3.78268 -8.78109,6.28863 -14.06398,7.01817 -5.92891,0.81876 -12.14216,-0.62442 -17.1032,-3.97261 -3.4884,0.48075 -7.15107,-0.45191 -9.9847,-2.54251 -2.52377,-1.86199 -4.3736,-4.61815 -5.14058,-7.65923 -1.293,-1.69831 -2.27323,-3.63397 -2.87702,-5.6813 -0.96071,-3.25755 -0.95099,-6.79476 0.0276,-10.04698 -0.45111,-2.6847 -0.1221,-5.49582 0.93674,-8.0038 0.82362,-1.95084 2.08295,-3.7163 3.65939,-5.13014 1.40984,-1.86904 3.01281,-3.59231 4.77512,-5.13349 1.25628,-1.09865 2.59336,-2.10488 3.99687,-3.0079"
           id="path2985-2-5-1"
           inkscape:path-effect="#path-effect2987-54-5-9"
           inkscape:original-d="m -308.43181,842.70903 c 0,0 -6.39803,3.17309 5.96398,-6.01917 12.362,-9.19226 11.42526,-3.94129 8.88946,-1.08852 -2.53579,2.85277 7.65885,3.16639 7.65885,3.16639 0,0 1.45733,3.3107 13.81934,3.3107 12.36201,0 4.49993,7.2699 4.49993,7.2699 0,0 -3.11417,2.18787 5.76112,5.67459 8.87528,3.48673 5.84276,19.96605 5.84276,19.96605 0,0 -3.82421,-4.10686 -2.55631,6.67027 1.2679,10.77714 -14.10537,5.20958 -14.10537,5.20958 0,0 -4.87171,1.62961 -14.06398,7.01817 -9.19226,5.38857 -17.1032,-3.97261 -17.1032,-3.97261 0,0 3.96218,4.43093 -9.9847,-2.54251 -13.94688,-6.97344 -5.14058,-7.65923 -5.14058,-7.65923 0,0 28.37761,-27.61781 -2.87702,-5.6813 -15.4279,10.8283 0.0276,-10.04698 0.0276,-10.04698 0.0674,0.0134 -3.96369,5.53355 0.93674,-8.0038 5.12568,-14.15961 3.65939,-5.13014 3.65939,-5.13014 0,0 12.86512,0.0807 4.77512,-5.13349 -399.79837,-257.67936 3.99687,-3.0079 3.99687,-3.0079 z"
           inkscape:connector-curvature="0"
           sodipodi:nodetypes="csscscscscscscscscsc" />
        <path
           style="fill:url(#linearGradient4364);fill-opacity:1;stroke:none"
           d="m -310.43181,840.70903 c 1.21877,-2.61048 3.36484,-4.77641 5.96398,-6.01917 2.73558,-1.308 5.89799,-1.58381 8.88946,-1.08852 2.74917,0.45518 5.39086,1.54733 7.65885,3.16639 4.77122,-1.25719 10.13574,0.028 13.81934,3.3107 2.15751,1.92271 3.74126,4.48134 4.49993,7.2699 2.17313,1.60969 4.11873,3.52607 5.76112,5.67459 4.30794,5.63551 6.43296,12.89717 5.84276,19.96605 -0.24141,2.39722 -1.13378,4.7257 -2.55631,6.67027 -1.56769,2.14299 -3.77694,3.81032 -6.26769,4.73024 -2.49074,0.91991 -5.25339,1.08887 -7.83768,0.47934 -3.75933,3.78268 -8.78109,6.28863 -14.06398,7.01817 -5.92891,0.81876 -12.14216,-0.62442 -17.1032,-3.97261 -3.4884,0.48075 -7.15107,-0.45191 -9.9847,-2.54251 -2.52377,-1.86199 -4.3736,-4.61815 -5.14058,-7.65923 -1.293,-1.69831 -2.27323,-3.63397 -2.87702,-5.6813 -0.96071,-3.25755 -0.95099,-6.79476 0.0276,-10.04698 -0.45111,-2.6847 -0.1221,-5.49582 0.93674,-8.0038 0.82362,-1.95084 2.08295,-3.7163 3.65939,-5.13014 1.40984,-1.86904 3.01281,-3.59231 4.77512,-5.13349 1.25628,-1.09865 2.59336,-2.10488 3.99687,-3.0079"
           id="path2985-2-5"
           inkscape:path-effect="#path-effect2987-54-5"
           inkscape:original-d="m -310.43181,840.70903 c 0,0 -6.39803,3.17309 5.96398,-6.01917 12.362,-9.19226 11.42526,-3.94129 8.88946,-1.08852 -2.53579,2.85277 7.65885,3.16639 7.65885,3.16639 0,0 1.45733,3.3107 13.81934,3.3107 12.36201,0 4.49993,7.2699 4.49993,7.2699 0,0 -3.11417,2.18787 5.76112,5.67459 8.87528,3.48673 5.84276,19.96605 5.84276,19.96605 0,0 -3.82421,-4.10686 -2.55631,6.67027 1.2679,10.77714 -14.10537,5.20958 -14.10537,5.20958 0,0 -4.87171,1.62961 -14.06398,7.01817 -9.19226,5.38857 -17.1032,-3.97261 -17.1032,-3.97261 0,0 3.96218,4.43093 -9.9847,-2.54251 -13.94688,-6.97344 -5.14058,-7.65923 -5.14058,-7.65923 0,0 28.37761,-27.61781 -2.87702,-5.6813 -15.4279,10.8283 0.0276,-10.04698 0.0276,-10.04698 0.0674,0.0134 -3.96369,5.53355 0.93674,-8.0038 5.12568,-14.15961 3.65939,-5.13014 3.65939,-5.13014 0,0 12.86512,0.0807 4.77512,-5.13349 -399.79837,-257.67936 3.99687,-3.0079 3.99687,-3.0079 z"
           inkscape:connector-curvature="0"
           sodipodi:nodetypes="csscscscscscscscscsc" />
      </g>
    </g>
  </g>
</svg>
