<?xml version="1.0" encoding="UTF-8" standalone="no"?>
<!-- Created with Inkscape (http://www.inkscape.org/) -->

<svg
   xmlns:dc="http://purl.org/dc/elements/1.1/"
   xmlns:cc="http://creativecommons.org/ns#"
   xmlns:rdf="http://www.w3.org/1999/02/22-rdf-syntax-ns#"
   xmlns:svg="http://www.w3.org/2000/svg"
   xmlns="http://www.w3.org/2000/svg"
   xmlns:xlink="http://www.w3.org/1999/xlink"
   xmlns:sodipodi="http://sodipodi.sourceforge.net/DTD/sodipodi-0.dtd"
   xmlns:inkscape="http://www.inkscape.org/namespaces/inkscape"
   width="48"
   height="48"
   id="svg2"
   version="1.1"
   inkscape:version="0.48.4 r9939"
   inkscape:export-filename="snowball.png"
   inkscape:export-xdpi="90"
   inkscape:export-ydpi="90"
   sodipodi:docname="Nouveau document 1">
  <defs
     id="defs4">
    <inkscape:path-effect
       effect="spiro"
       id="path-effect3838"
       is_visible="true" />
    <inkscape:path-effect
       effect="spiro"
       id="path-effect3834"
       is_visible="true" />
    <inkscape:path-effect
       effect="spiro"
       id="path-effect3830"
       is_visible="true" />
    <inkscape:path-effect
       effect="spiro"
       id="path-effect3826"
       is_visible="true" />
    <inkscape:path-effect
       effect="spiro"
       id="path-effect3822"
       is_visible="true" />
    <inkscape:path-effect
       effect="spiro"
       id="path-effect3817"
       is_visible="true" />
    <inkscape:path-effect
       effect="spiro"
       id="path-effect3813"
       is_visible="true" />
    <inkscape:path-effect
       effect="spiro"
       id="path-effect3809"
       is_visible="true" />
    <inkscape:path-effect
       effect="spiro"
       id="path-effect3805"
       is_visible="true" />
    <linearGradient
       id="linearGradient3793">
      <stop
         style="stop-color:#effbff;stop-opacity:1;"
         offset="0"
         id="stop3795" />
      <stop
         style="stop-color:#c7dadf;stop-opacity:1;"
         offset="1"
         id="stop3797" />
    </linearGradient>
    <linearGradient
       inkscape:collect="always"
       id="linearGradient3785">
      <stop
         style="stop-color:#fdfeff;stop-opacity:1;"
         offset="0"
         id="stop3787" />
      <stop
         style="stop-color:#fdfeff;stop-opacity:0;"
         offset="1"
         id="stop3789" />
    </linearGradient>
    <linearGradient
       inkscape:collect="always"
       id="linearGradient3777">
      <stop
         style="stop-color:#eefbff;stop-opacity:1;"
         offset="0"
         id="stop3779" />
      <stop
         style="stop-color:#eefbff;stop-opacity:0;"
         offset="1"
         id="stop3781" />
    </linearGradient>
    <linearGradient
       id="linearGradient3769">
      <stop
         style="stop-color:#afc2c6;stop-opacity:1;"
         offset="0"
         id="stop3771" />
      <stop
         style="stop-color:#c2d6da;stop-opacity:0;"
         offset="1"
         id="stop3773" />
    </linearGradient>
    <inkscape:path-effect
       effect="spiro"
       id="path-effect3767"
       is_visible="true" />
    <inkscape:path-effect
       effect="spiro"
       id="path-effect3763"
       is_visible="true" />
    <inkscape:path-effect
       effect="spiro"
       id="path-effect3759"
       is_visible="true" />
    <inkscape:path-effect
       effect="spiro"
       id="path-effect2987"
       is_visible="true" />
    <linearGradient
       inkscape:collect="always"
       xlink:href="#linearGradient3769"
       id="linearGradient3775"
       x1="1.4710484"
       y1="59.075054"
       x2="34.107105"
       y2="17.557198"
       gradientUnits="userSpaceOnUse" />
    <linearGradient
       inkscape:collect="always"
       xlink:href="#linearGradient3777"
       id="linearGradient3783"
       x1="12.710752"
       y1="35.528961"
       x2="46.281406"
       y2="2.3146744"
       gradientUnits="userSpaceOnUse" />
    <linearGradient
       inkscape:collect="always"
       xlink:href="#linearGradient3785"
       id="linearGradient3791"
       x1="35.145634"
       y1="5.0808678"
       x2="23.037785"
       y2="22.313011"
       gradientUnits="userSpaceOnUse" />
    <radialGradient
       inkscape:collect="always"
       xlink:href="#linearGradient3793"
       id="radialGradient3801"
       cx="28.609396"
       cy="18.330166"
       fx="28.609396"
       fy="18.330166"
       r="20.624967"
       gradientTransform="matrix(1.4951126,0,0,1.6280071,-12.154295,-15.300111)"
       gradientUnits="userSpaceOnUse" />
  </defs>
  <sodipodi:namedview
     id="base"
     pagecolor="#ffffff"
     bordercolor="#666666"
     borderopacity="1.0"
     inkscape:pageopacity="0.0"
     inkscape:pageshadow="2"
     inkscape:zoom="0.98994949"
     inkscape:cx="1.7200548"
     inkscape:cy="-28.020503"
     inkscape:document-units="px"
     inkscape:current-layer="layer1"
     showgrid="false"
     inkscape:window-width="1366"
     inkscape:window-height="682"
     inkscape:window-x="0"
     inkscape:window-y="30"
     inkscape:window-maximized="1" />
  <metadata
     id="metadata7">
    <rdf:RDF>
      <cc:Work
         rdf:about="">
        <dc:format>image/svg+xml</dc:format>
        <dc:type
           rdf:resource="http://purl.org/dc/dcmitype/StillImage" />
        <dc:title></dc:title>
      </cc:Work>
    </rdf:RDF>
  </metadata>
  <g
     inkscape:label="Calque 1"
     inkscape:groupmode="layer"
     id="layer1"
     transform="translate(0,-1004.3622)">
    <path
       style="fill:url(#radialGradient3801);fill-opacity:1;stroke:#93a7ac;stroke-width:1px;stroke-linecap:butt;stroke-linejoin:miter;stroke-opacity:1"
       d="M 9.4701802,8.4777816 C 10.551965,7.0531599 11.986518,5.8843644 13.637059,5.1947858 c 2.160574,-0.902665 4.578526,-0.959394 6.81853,-1.6414979 1.34262,-0.4088414 2.640027,-1.0461544 4.04061,-1.1364216 0.967999,-0.062387 1.93335,0.142045 2.868384,0.4001624 0.935035,0.2581174 1.857764,0.5717753 2.813724,0.7362592 1.83524,0.3157742 3.744334,0.073488 5.555839,0.5050764 1.752743,0.4175885 3.320777,1.4565245 4.545687,2.7779194 1.163086,1.2547006 2.031842,2.7535343 2.777919,4.2931483 0.843558,1.740778 1.544123,3.554698 2.020306,5.42957 0.73152,2.880206 0.926139,5.868372 1.010152,8.838835 0.07592,2.68416 0.05261,5.438315 -0.883884,7.954951 -0.976168,2.623259 -2.870073,4.789584 -4.798225,6.81853 -1.317948,1.386843 -2.684876,2.751836 -4.293147,3.788072 -2.068517,1.332782 -4.491672,2.079877 -6.9448,2.272843 C 25.27529,46.53845 21.421736,45.487866 17.5514,44.969542 16.45577,44.822813 15.352086,44.718129 14.273081,44.477954 13.194076,44.23778 12.130077,43.854494 11.237948,43.201776 9.932409,42.246591 9.0957403,40.799956 8.0812207,39.539972 6.9321995,38.112943 5.5114607,36.875288 4.6719556,35.246825 3.6434127,33.251668 3.6073891,30.916743 3.4092649,28.680832 3.2265217,26.618501 2.8873834,24.563991 2.9041886,22.493648 2.9197585,20.5755 3.2556708,18.625777 4.1668792,16.937809 4.7717435,15.817328 5.6111685,14.843218 6.3134534,13.781082 7.4490256,12.063642 8.2250432,10.117525 9.4701802,8.4777816"
       id="path2985"
       inkscape:path-effect="#path-effect2987"
       inkscape:original-d="M 9.4701802,8.4777816 C 10.636415,7.1486214 9.217642,5.8261312 13.637059,5.1947858 c 4.419417,-0.6313453 3.914342,-0.6313453 6.81853,-1.6414979 2.904189,-1.0101525 0.883884,-1.2626906 4.04061,-1.1364216 3.156727,0.1262691 4.16688,-0.7576144 5.682108,1.1364216 1.515229,1.8940361 2.146574,-0.2525381 5.555839,0.5050764 3.409265,0.7576144 3.661804,0.2525381 4.545687,2.7779194 0.883884,2.5253811 1.894036,3.5355343 2.777919,4.2931483 0.883884,0.757614 2.525383,-0.505077 2.020306,5.42957 -0.505077,5.934646 544.947252,-22.0261359 1.010152,8.838835 -3.658095,0.207574 0,5.682108 -0.883884,7.954951 -0.883883,2.272843 -2.525381,5.42957 -4.798225,6.81853 -2.272843,1.388959 0.757616,3.030457 -4.293147,3.788072 -5.050763,0.757614 -2.146575,1.515228 -6.9448,2.272843 C 24.36993,46.989847 20.203051,45.979695 17.5514,44.969542 14.89975,43.95939 12.2481,44.717004 11.237948,43.201776 10.227795,41.686547 9.7227187,42.065354 8.0812207,39.539972 6.4397227,37.014591 6.313453,39.539973 4.6719556,35.246825 3.0304577,30.953677 3.4092649,31.585021 3.4092649,28.680832 c 0,-2.904188 1.5798672,-5.676507 -0.5050763,-6.187184 -5.634864,-1.380179 1.1364216,-2.77792 1.2626906,-5.555839 0.1262691,-2.77792 1.2626907,0.757615 2.1465742,-3.156727 C 7.1973369,9.8667414 8.1133613,10.02415 9.4701802,8.4777816 z"
       inkscape:connector-curvature="0"
       transform="translate(0,1004.3622)"
       sodipodi:nodetypes="asssssssssssssssssssssa" />
    <path
       style="fill:url(#linearGradient3783);stroke:none;stroke-width:1px;stroke-linecap:butt;stroke-linejoin:miter;stroke-opacity:1;fill-opacity:1"
       d="M 24.09375 3.625 C 23.9375 3.9375 23.942243 4.0242746 23.96875 4.03125 C 23.872539 4.0831882 23.528907 4.3570545 22.3125 5.6875 C 19.455357 8.8125 20.90625 9.1651786 19.03125 9.96875 C 17.15625 10.772321 14.919643 9.2455359 15.1875 11.03125 C 15.455358 12.816964 16.071429 13.352679 17.5 14.78125 C 18.928571 16.209822 18.580358 15.397321 18.9375 17.71875 C 19.294643 20.040178 19.375 16.834822 20.625 21.03125 C 21.875 25.227679 17.758928 26.745536 21.6875 26.03125 C 25.616071 25.316965 25.008929 25.602679 26.4375 23.90625 C 27.866072 22.209822 26.508932 23.888393 30.4375 24.78125 C 34.366071 25.674107 34.745536 26.580358 35.90625 24.4375 C 37.066965 22.294643 36.4375 21.941964 38.3125 22.03125 C 40.1875 22.12054 41.258928 24.330358 41.4375 20.3125 C 41.616071 16.294643 42.602679 16.660714 42.78125 15.5 C 42.959822 14.339286 43.133928 14.691964 42.0625 12.90625 C 40.991071 11.120536 40.991071 10.857143 40.8125 9.25 C 40.633928 7.6428571 40.4375 7.1071428 39.1875 6.75 C 37.9375 6.3928571 39.27678 6.40625 36.6875 5.78125 C 34.098214 5.15625 35.183036 5.5803571 33.21875 4.6875 C 31.254464 3.7946428 32.589286 3.5446429 30 3.8125 C 27.410714 4.0803572 24.09375 3.625 24.09375 3.625 z M 17.40625 6.28125 C 16.878906 6.2728794 15.745536 6.9642855 15.34375 7.03125 C 15.34375 7.03125 15.705357 8.2723214 16.6875 8.09375 C 17.669642 7.9151786 17.6875 7.3660714 17.6875 6.5625 C 17.6875 6.3616071 17.582031 6.2840402 17.40625 6.28125 z M 36.96875 25.9375 C 35.808036 26.473214 33.9375 26.040183 35.1875 26.84375 C 36.4375 27.647321 36.415179 28.370536 37.21875 27.65625 C 38.022321 26.941964 39.03125 26.3125 39.03125 26.3125 L 36.96875 25.9375 z M 24.21875 26.21875 C 24.011579 26.251709 24.060268 26.435268 24.5625 26.9375 C 25.901786 28.276786 25.96875 28.4375 26.59375 28.4375 C 27.21875 28.4375 27.602679 29.0625 27.78125 28.4375 C 27.959822 27.8125 26.0625 26.40625 26.0625 26.40625 C 25.560268 26.517857 24.564035 26.163819 24.21875 26.21875 z M 31.375 29.28125 C 31.132603 29.310896 30.575893 29.821429 29.90625 30.15625 C 29.90625 30.15625 29.651785 31.22321 30.1875 31.3125 C 30.723214 31.401786 31.080357 31.125 31.4375 29.875 C 31.571428 29.40625 31.520438 29.263463 31.375 29.28125 z "
       transform="translate(0,1004.3622)"
       id="path3761" />
    <path
       style="fill:url(#linearGradient3791);stroke:none;stroke-width:1px;stroke-linecap:butt;stroke-linejoin:miter;stroke-opacity:1;fill-opacity:1"
       d="M 29.553572,7.017857 C 29.248649,6.8104846 28.861139,6.7284207 28.49833,6.7943859 28.135522,6.8603511 27.801699,7.0735664 27.589286,7.3749999 27.345891,7.7203991 27.26868,8.1528527 27.206753,8.570832 27.144826,8.9888112 27.087745,9.4206371 26.875,9.7857142 c -0.1727,0.2963588 -0.438782,0.5295748 -0.730384,0.7101918 -0.291602,0.180616 -0.610141,0.312585 -0.926817,0.444384 -0.316675,0.131798 -0.634778,0.26511 -0.924907,0.448083 -0.290129,0.182972 -0.553587,0.419652 -0.721463,0.71877 -0.145515,0.259276 -0.214396,0.558858 -0.211418,0.856162 0.003,0.297304 0.07649,0.592131 0.200046,0.86256 0.247114,0.54086 0.685986,0.974499 1.172086,1.316992 1.025018,0.7222 2.258333,1.073205 3.392857,1.607143 0.691605,0.325488 1.348413,0.720187 2.03257,1.061051 0.684158,0.340864 1.405344,0.630241 2.163859,0.724663 1.433563,0.178454 2.925631,-0.38883 3.928571,-1.428571 0.323475,-0.335344 0.600492,-0.718578 0.792477,-1.143116 0.191985,-0.424539 0.297357,-0.891317 0.278952,-1.356884 -0.02659,-0.672735 -0.3056,-1.308186 -0.611895,-1.907739 C 36.403239,12.099851 36.061738,11.508879 35.892857,10.857143 35.744196,10.283441 35.73427,9.6796398 35.571307,9.1098352 35.489825,8.8249329 35.368676,8.5479766 35.184817,8.3155879 35.000958,8.0831993 34.750764,7.8971827 34.464286,7.8214285 34.196019,7.7504901 33.908436,7.7787559 33.64402,7.8629211 33.379605,7.9470864 33.135512,8.0848861 32.901585,8.2341405 32.667657,8.383395 32.44151,8.545172 32.200804,8.6832283 31.960097,8.8212845 31.702216,8.936118 31.428572,8.9821428 30.902776,9.0705777 30.338329,8.8828941 29.970181,8.4972144 29.602032,8.1115347 29.44079,7.5389737 29.553572,7.017857"
       id="path3757"
       inkscape:path-effect="#path-effect3759"
       inkscape:original-d="m 29.553572,7.017857 c 0,0 -1.339286,-1.25 -1.964286,0.3571429 -0.625,1.6071429 0.714286,1.25 -0.714286,2.4107143 -1.428571,1.1607138 -3.392857,1.1607138 -3.303571,2.3214288 0.08929,1.160714 -0.625,2.321428 1.160714,3.035714 1.785714,0.714286 1.339286,-0.08929 3.392857,1.607143 2.053572,1.696428 1.339286,2.946428 4.196429,1.785714 2.857143,-1.160714 2.857143,0.178572 3.928571,-1.428571 1.071429,-1.607143 2.410714,0.08929 1.071429,-2.5 -1.339286,-2.589286 -1.607143,-2.410715 -1.428572,-3.75 C 36.071429,9.517857 36.25,6.8392856 34.464286,7.8214285 32.678572,8.8035713 31.607143,9.7857142 31.428572,8.9821428 31.25,8.1785713 29.553572,7.017857 29.553572,7.017857 z"
       inkscape:connector-curvature="0"
       transform="translate(0,1004.3622)" />
    <path
       style="fill:url(#linearGradient3775);fill-opacity:1;stroke:none"
       d="M 11.40625 8.9375 C 11.31425 8.9647473 11.300068 9.1594874 11.4375 9.625 C 11.685931 9.4587375 11.976002 9.3878664 12.25 9.34375 C 11.856939 9.1593715 11.541244 8.8975192 11.40625 8.9375 z M 12.25 9.34375 C 12.585572 9.5011616 12.978395 9.6007537 13.3125 9.34375 C 13.3125 9.34375 12.805819 9.2542574 12.25 9.34375 z M 11.4375 9.625 C 11.337442 9.6919641 11.240091 9.7806784 11.15625 9.875 C 10.441968 10.678571 10.459822 11.308035 10.28125 12.46875 C 10.102679 13.629464 10.254464 14.151786 10.34375 15.3125 C 10.433036 16.473215 10.263393 16.214286 9.90625 19.25 C 9.5491072 22.285714 10 20.669642 10 22.1875 C 10 23.705357 9.7366072 23.633929 9.46875 24.4375 C 9.2008929 25.241072 9.0223215 24.96875 7.59375 26.84375 C 6.1651786 28.71875 7.5758928 27.745536 7.84375 28.90625 C 8.1116071 30.066964 8.6696428 29.174107 9.5625 30.78125 C 10.455358 32.388393 9.8169643 31.392857 9.28125 34.25 C 8.7455357 37.107143 9.1205357 35.0625 9.65625 37.5625 C 10.191964 40.0625 10.446429 38.263393 11.875 37.90625 C 13.303571 37.549107 11.964286 36.584822 13.125 36.40625 C 14.285714 36.227679 13.75 37.111607 15.625 38.09375 C 17.5 39.075893 17.665178 38.352679 18.46875 38.53125 C 19.272321 38.709822 19.120536 38.705353 20.28125 41.5625 C 21.441964 44.419642 20.892857 42.74554 22.5 42.65625 C 24.107143 42.56696 24.388393 42.026786 27.15625 42.5625 C 29.924107 43.098215 29.455352 40.241071 30.4375 40.6875 C 31.419643 41.133928 32.598214 42.455357 33.9375 41.5625 C 35.276785 40.669642 34.897321 40.772321 38.46875 39.96875 C 42.040179 39.165178 38.763393 39.526786 39.65625 38.8125 C 40.549103 38.098215 40.625 35.9375 40.625 35.9375 C 40.625 35.9375 39.736607 35.580357 38.21875 36.5625 C 36.700893 37.544643 37.602679 35.415178 36.53125 34.96875 C 35.459822 34.522321 33.575893 35.147321 31.96875 34.96875 C 30.361607 34.790178 31.084822 34.691965 28.40625 36.03125 C 25.727679 37.370536 27.767857 36.83929 26.25 36.75 C 24.732143 36.660714 24.026786 35.602679 21.4375 32.65625 C 18.848215 29.709822 19.5625 32.553571 17.6875 32.375 C 15.8125 32.196429 15.352679 31.491072 14.28125 30.0625 C 13.209822 28.633929 15.19196 27.196429 15.28125 24.875 C 15.370536 22.553571 14.651786 23.700893 13.9375 20.84375 C 13.22321 17.986607 13.93304 19.964286 13.84375 16.125 C 13.754464 12.285714 13.303571 14.683035 11.875 10.84375 C 11.667535 10.286188 11.524362 9.9192201 11.4375 9.625 z M 8.78125 17.59375 C 8.7769993 17.583614 8.7667411 17.617188 8.75 17.65625 C 8.4821429 18.28125 8.3124998 18.629464 7.6875 19.96875 C 7.0624997 21.308035 7.683036 20.950893 7.59375 23.09375 C 7.59375 23.09375 8.84501 17.745793 8.78125 17.59375 z M 17.03125 27.75 C 16.909877 27.582589 16.267857 28.794643 15.53125 29.53125 C 15.53125 29.53125 15.625 30.3125 16.25 30.3125 C 16.874996 30.3125 16.611607 30.133928 16.96875 28.4375 C 17.058036 28.013393 17.071708 27.805804 17.03125 27.75 z M 13.46875 38.53125 C 11.415178 38.62054 10.526785 38.611611 11.6875 38.96875 C 12.848214 39.325893 13.5625 39.53125 13.5625 39.53125 L 13.46875 38.53125 z M 17.53125 39.59375 C 17.49707 39.604388 17.462054 39.631696 17.40625 39.6875 C 16.959822 40.133928 16.53125 42.8125 16.53125 42.8125 C 17.959822 43.348214 18.75 45.584822 18.125 42.90625 C 17.578125 40.5625 17.770508 39.519287 17.53125 39.59375 z M 29.8125 42.71875 C 28.383928 43.165178 26.25 43.348214 27.5 43.4375 C 28.75 43.52678 29.196429 43.616071 30 43.4375 C 30.803572 43.258928 29.8125 42.71875 29.8125 42.71875 z "
       transform="translate(0,1004.3622)"
       id="path3765" />
  </g>
</svg>
